# xmcd
#
# Track frame offsets: 
#        150
#        16071
#        32636
#        48952
#        66833
#        81780
#        97028
#        113000
#        127670
#        144527
#        160088
#        176657
#        192146
#        205722
#        220156
#        233006
#        246433
#        261624
#        279979
#        294020
#        311642
#
# Disc length: 4372 seconds
#
# Revision: 2
# Processed by: cddbd v1.5.2PL0 Copyright (c) Steve Scherf et al.
# Submitted via: ExactAudioCopy v1.1
#
DISCID=20111215
DTITLE=Various Artist - Kneipenhits - die Koelsche Vol. 07 - CD 1
DYEAR=2007
DGENRE=Kölsch
TTITLE0=Brings - Mann müsste noch mal 20 sein
TTITLE1=Höhner - Der kölsche Pass
TTITLE2=Paveier - Hück weed et joot
TTITLE3=Räuber - Sulang die Botz noch hält
TTITLE4=Boore - Nur met dir
TTITLE5=Bläck Fööss - Rut un wiess (Remake 2006)
TTITLE6=Colör - Kölsche Mädche sin jefährlich
TTITLE7=Funky Marys - Un dat wor schön 
TTITLE8=Olaf Henning - Lasso Mix 2007 (Medley)
TTITLE9=Michael Wendler - Sie liebt den DJ
TTITLE10=Disco Boys - Manfred Mann's Earth Band - For You
TTITLE11=Bob Sinclar - Goleo VI - Garry 'Nesta' Pine - Love Generation
TTITLE12=Marquess - Vayamos companeros
TTITLE13=Wally Warning - No Monkey
TTITLE14=Bläck Fööss - Mir Kölsche
TTITLE15=Filue - Auf Majas Blumenwiese
TTITLE16=Fussich Julche - Marita Köllner - Es war in Altenahr
TTITLE17=Rubbedidub - Einmol em Levve
TTITLE18=Kläävbotze - Heim no Kölle (Version 2005)
TTITLE19=Klpngelköpp - Du kannst mich mal
TTITLE20=Tommy Engel - En unserem Veedel (live)
EXTD=
EXTT0=
EXTT1=
EXTT2=
EXTT3=
EXTT4=
EXTT5=
EXTT6=
EXTT7=
EXTT8=
EXTT9=
EXTT10=
EXTT11=
EXTT12=
EXTT13=
EXTT14=
EXTT15=
EXTT16=
EXTT17=
EXTT18=
EXTT19=
EXTT20=
PLAYORDER=
